<svg xmlns="http://www.w3.org/2000/svg" viewBox="0 0 575 575"><path d="M68 183c0 49.7 40.3 90 90 90m-90-90c49.7 0 90 40.3 90 90m0-135c0 74.6 33.6 135 75 135m-75-135c41.4 0 75 60.4 75 135m30-165c-20 60-10 110 30 150m-30-150c30 30 40 80 30 150m105-135c-40 30-60 75-60 135m60-135c10 60-10 105-60 135m165-120c-50 20-85 65-105 135m105-135c-10 60-45 105-105 135m90 45c-60 20-100 50-120 90m120-90c-10 50-50 80-120 90m-15-90c-20 30-35 70-45 120m45-120c10 50-5 90-45 120m-30-150c-30 50-35 105-15 165m15-165c10 60 5 115-15 165m-75-150c30 50 40 95 30 135m-30-135c-20 50-10 95 30 135M98 318c0 60 20 100 60 120M98 318c40 20 60 60 60 120" fill="#333" stroke="#333" stroke-width="18" stroke-linecap="round" stroke-linejoin="round"/></svg>